<svg width="40" height="40" viewBox="0 0 40 40" fill="none" xmlns="http://www.w3.org/2000/svg">
<path d="M4.80834 14.7479C5.92943 10.2331 9.50937 6.74223 14.0503 5.73603L14.8067 5.56841C18.227 4.81053 21.7717 4.81053 25.192 5.56841L25.9484 5.73603C30.4893 6.74223 34.0693 10.2331 35.1904 14.7479C36.0468 18.1969 36.0468 21.8031 35.1904 25.2521C34.0693 29.7669 30.4893 33.2578 25.9484 34.264L25.192 34.4316C21.7717 35.1895 18.227 35.1895 14.8067 34.4316L14.0503 34.264C9.50937 33.2578 5.92943 29.7669 4.80834 25.2521C3.95191 21.8031 3.95191 18.1969 4.80834 14.7479Z" fill="white" fill-opacity="0.15"/>
<path d="M5.33698 14.5004H34.6617M4.80834 25.2521C3.95191 21.8031 3.95191 18.1969 4.80834 14.7479C5.92943 10.2331 9.50937 6.74223 14.0503 5.73603L14.8067 5.56841C18.227 4.81053 21.7717 4.81053 25.192 5.56841L25.9484 5.73603C30.4893 6.74223 34.0693 10.2331 35.1904 14.7479C36.0468 18.1969 36.0468 21.8031 35.1904 25.2521C34.0693 29.7669 30.4893 33.2578 25.9484 34.264L25.192 34.4316C21.7717 35.1895 18.227 35.1895 14.8067 34.4316L14.0503 34.264C9.50937 33.2578 5.92943 29.7669 4.80834 25.2521Z" stroke="#FAFAFF" stroke-width="2.5"/>
<path d="M11.666 20L18.3327 20" stroke="#FAFAFF" stroke-width="2.5" stroke-linecap="round"/>
</svg>
