<svg width="143" height="111" viewBox="0 0 143 111" fill="none" xmlns="http://www.w3.org/2000/svg">
<path d="M102.023 37.4713L71.8483 60.5248C71.6565 60.6781 71.41 60.7593 71.1635 60.7593H41.7744C41.2449 60.7593 41.0166 60.0918 41.4366 59.7762L71.6018 36.7136C71.7935 36.5603 72.04 36.4791 72.2865 36.4791H101.685C102.214 36.4791 102.443 37.1466 102.023 37.4622V37.4713ZM61.8054 16.1314C61.1754 15.8879 60.4542 15.9871 59.9155 16.393L39.1998 32.231C38.725 32.5918 38.4511 33.151 38.4511 33.7372V55.979C38.4511 56.7727 39.3732 57.2146 40.0032 56.7366L66.6168 36.3889L81.179 25.259C81.7725 24.8081 81.6355 23.8881 80.9416 23.6175L61.8054 16.1314ZM102.899 41.061L76.2854 61.3996L61.4584 72.728C60.865 73.1789 61.0019 74.0989 61.6958 74.3695L80.8321 81.8646C81.462 82.1171 82.1833 82.0089 82.722 81.603L103.702 65.5666C104.177 65.2058 104.451 64.6466 104.451 64.0604V41.8096C104.451 41.0159 103.529 40.5739 102.899 41.0519V41.061Z" fill="url(#paint0_linear_209_721)"/>
<path d="M13.5319 102.242C13.2246 101.67 12.6327 101.113 11.7563 100.573C11.504 100.395 11.1094 100.208 10.5726 100.007C9.99688 99.7776 9.59261 99.6224 9.36298 99.5512L8.07254 99.1211C6.70771 98.7103 5.76009 98.3125 5.21998 97.9406C4.73485 97.5654 4.49229 97.077 4.49229 96.4884C4.49229 95.9321 4.71545 95.4761 5.165 95.1268C5.61132 94.7775 6.21288 94.6029 6.96645 94.6029C8.61588 94.6029 9.819 95.4114 10.5726 97.0253L13.6936 95.2239C13.0467 93.8784 12.1411 92.837 10.9768 92.1029C9.8093 91.3655 8.47358 91 6.96645 91C5.24586 91 3.78077 91.511 2.58088 92.533C1.37776 93.5162 0.779439 94.8746 0.779439 96.5951C0.779439 98.3157 1.3713 99.59 2.55501 100.466C3.50586 101.133 4.80277 101.715 6.45544 102.216C7.97875 102.646 9.03956 103.051 9.63142 103.426C10.2233 103.788 10.5208 104.299 10.5208 104.959C10.5208 105.57 10.2686 106.055 9.76725 106.411C9.26272 106.773 8.50916 106.948 7.50656 106.948C5.35259 106.948 3.91014 105.99 3.17598 104.069L0 105.926C0.536876 107.378 1.44245 108.52 2.71672 109.344C3.98776 110.172 5.54987 110.583 7.39983 110.583C9.40503 110.583 11.048 110.072 12.3223 109.05C13.5933 108.028 14.2337 106.647 14.2337 104.907C14.2337 103.885 13.9976 102.996 13.5351 102.242H13.5319Z" fill="white"/>
<path d="M26.9835 98.4485C25.6025 97.0675 23.9175 96.3818 21.9252 96.3818C19.933 96.3818 18.2512 97.0707 16.8669 98.4485C15.5054 99.8133 14.8229 101.489 14.8229 103.481C14.8229 105.473 15.5086 107.178 16.8669 108.539C18.2318 109.904 19.92 110.583 21.9252 110.583C23.9304 110.583 25.6187 109.904 26.9835 108.539C28.3645 107.158 29.0566 105.473 29.0566 103.481C29.0566 101.489 28.3645 99.8327 26.9835 98.4485ZM24.5352 106.143C23.8366 106.841 22.9666 107.191 21.9252 107.191C20.8838 107.191 20.0138 106.841 19.3152 106.143C18.636 105.428 18.2932 104.538 18.2932 103.478C18.2932 102.417 18.636 101.534 19.3152 100.813C20.0138 100.114 20.887 99.7648 21.9252 99.7648C22.9634 99.7648 23.8366 100.114 24.5352 100.813C25.2338 101.511 25.5831 102.401 25.5831 103.478C25.5831 104.555 25.2338 105.441 24.5352 106.143Z" fill="white"/>
<path d="M30.1559 91.3752V110.205H33.6262V91.3752H30.1559Z" fill="white"/>
<path d="M45.6836 96.757V98.345C44.6422 97.0351 43.1803 96.3818 41.298 96.3818C39.4157 96.3818 37.9603 97.0707 36.6699 98.4485C35.3989 99.8327 34.7585 101.508 34.7585 103.481C34.7585 105.454 35.3956 107.158 36.6699 108.539C37.9603 109.904 39.503 110.583 41.298 110.583C43.1803 110.583 44.6422 109.93 45.6836 108.62V110.208H49.1539V96.757H45.6836ZM44.6066 106.223C43.908 106.922 43.0186 107.271 41.9416 107.271C40.8646 107.271 39.9785 106.922 39.2766 106.223C38.5781 105.509 38.2288 104.593 38.2288 103.478C38.2288 102.362 38.5781 101.46 39.2766 100.761C39.9752 100.046 40.8646 99.6839 41.9416 99.6839C43.0186 99.6839 43.9048 100.046 44.6066 100.761C45.3214 101.46 45.6836 102.368 45.6836 103.478C45.6836 104.587 45.3214 105.505 44.6066 106.223Z" fill="white"/>
<path d="M62.0643 97.8566C61.1329 96.8734 59.9233 96.3818 58.4323 96.3818C56.5889 96.3818 55.2499 97.0093 54.4219 98.2641V96.757H50.9549V110.205H54.4219V102.941C54.4219 101.848 54.6872 101.02 55.2176 100.454C55.7447 99.8877 56.466 99.6031 57.3812 99.6031C58.2092 99.6031 58.856 99.8457 59.3347 100.331C59.8069 100.816 60.0462 101.498 60.0462 102.375V110.205H63.5165V101.945C63.5165 100.224 63.0314 98.8625 62.0643 97.8566Z" fill="white"/>
<path d="M75.3542 96.757V98.345C74.3128 97.0351 72.8509 96.3818 70.9686 96.3818C69.0863 96.3818 67.6309 97.0707 66.3405 98.4485C65.0694 99.8327 64.4291 101.508 64.4291 103.481C64.4291 105.454 65.0662 107.158 66.3405 108.539C67.6309 109.904 69.1736 110.583 70.9686 110.583C72.8509 110.583 74.3128 109.93 75.3542 108.62V110.208H78.8245V96.757H75.3542ZM74.2772 106.223C73.5786 106.922 72.6892 107.271 71.6122 107.271C70.5352 107.271 69.6491 106.922 68.9472 106.223C68.2487 105.509 67.8994 104.593 67.8994 103.478C67.8994 102.362 68.2487 101.46 68.9472 100.761C69.6458 100.046 70.5352 99.6839 71.6122 99.6839C72.6892 99.6839 73.5754 100.046 74.2772 100.761C74.9919 101.46 75.3542 102.368 75.3542 103.478C75.3542 104.587 74.9919 105.505 74.2772 106.223Z" fill="white"/>
<path d="M78.7551 91.3752V93.7427H84.2985V110.205H86.7726V93.7427H92.3387V91.3752H78.7551Z" fill="white"/>
<path d="M93.7404 99.0113V96.7539H91.3989V110.202H93.7404V103.07C93.7404 101.602 94.1544 100.535 94.9791 99.8684C95.8071 99.2086 96.7935 98.9014 97.9384 98.9531V96.5081C95.9138 96.5081 94.5134 97.3425 93.7404 99.0049V99.0113Z" fill="white"/>
<path d="M109.675 96.757V99.0662C108.527 97.2939 106.832 96.4077 104.591 96.4077C102.708 96.4077 101.104 97.0966 99.7749 98.4744C98.4489 99.8586 97.7827 101.527 97.7827 103.478C97.7827 105.428 98.4489 107.129 99.7749 108.51C101.085 109.875 102.692 110.554 104.591 110.554C106.832 110.554 108.527 109.665 109.675 107.889V110.202H112.016V96.757H109.675ZM108.303 106.922C107.388 107.837 106.25 108.293 104.885 108.293C103.52 108.293 102.411 107.837 101.496 106.922C100.58 105.971 100.124 104.823 100.124 103.478C100.124 102.132 100.58 100.974 101.496 100.059C102.411 99.1277 103.54 98.6587 104.885 98.6587C106.23 98.6587 107.388 99.1277 108.303 100.059C109.219 100.974 109.675 102.116 109.675 103.478C109.675 104.839 109.219 105.971 108.303 106.922Z" fill="white"/>
<path d="M125.361 91.3752V99.0661C124.213 97.2938 122.518 96.4076 120.277 96.4076C118.395 96.4076 116.787 97.0965 115.461 98.4743C114.132 99.8585 113.469 101.527 113.469 103.478C113.469 105.428 114.129 107.129 115.461 108.51C116.768 109.875 118.375 110.554 120.277 110.554C122.518 110.554 124.213 109.665 125.361 107.889V110.201H127.703V91.3752H125.361ZM123.99 106.922C123.075 107.837 121.933 108.293 120.571 108.293C119.21 108.293 118.097 107.837 117.182 106.922C116.267 105.971 115.811 104.823 115.811 103.478C115.811 102.132 116.267 100.974 117.182 100.059C118.097 99.1276 119.226 98.6586 120.571 98.6586C121.917 98.6586 123.075 99.1276 123.99 100.059C124.905 100.974 125.361 102.116 125.361 103.478C125.361 104.839 124.905 105.971 123.99 106.922Z" fill="white"/>
<path d="M142.899 103.507C142.899 101.534 142.272 99.8683 141.017 98.5035C139.778 97.1095 138.177 96.4077 136.201 96.4077C134.121 96.4077 132.427 97.0772 131.12 98.4226C129.81 99.7519 129.157 101.437 129.157 103.481C129.157 105.525 129.817 107.207 131.143 108.565C132.508 109.894 134.248 110.557 136.363 110.557C138.986 110.557 140.955 109.545 142.281 107.517L140.289 106.388C139.48 107.698 138.19 108.352 136.414 108.352C135.124 108.352 134.047 108.018 133.187 107.346C132.326 106.673 131.78 105.742 131.55 104.558H142.821C142.876 104.199 142.902 103.85 142.902 103.51L142.899 103.507ZM131.55 102.511C131.748 101.311 132.262 100.357 133.096 99.6581C133.931 98.9595 134.966 98.6102 136.201 98.6102C137.317 98.6102 138.264 98.953 139.054 99.6322C139.846 100.318 140.338 101.272 140.535 102.511H131.553H131.55Z" fill="white"/>
<defs>
<linearGradient id="paint0_linear_209_721" x1="38.4511" y1="48.998" x2="104.451" y2="48.998" gradientUnits="userSpaceOnUse">
<stop stop-color="#17FCCD"/>
<stop offset="1" stop-color="#700FFD"/>
</linearGradient>
</defs>
</svg>
