<svg width="181" height="28" viewBox="0 0 181 28" fill="none" xmlns="http://www.w3.org/2000/svg">
<path d="M50.8268 15.242C50.5195 14.6696 49.9277 14.1133 49.0512 13.5732C48.7989 13.3953 48.4044 13.2077 47.8675 13.0072C47.2918 12.7776 46.8875 12.6224 46.6579 12.5512L45.3675 12.1211C44.0026 11.7103 43.055 11.3125 42.5149 10.9406C42.0298 10.5654 41.7872 10.077 41.7872 9.48842C41.7872 8.93214 42.0104 8.47612 42.4599 8.12683C42.9062 7.77753 43.5078 7.60289 44.2614 7.60289C45.9108 7.60289 47.1139 8.41144 47.8675 10.0253L50.9885 8.22385C50.3416 6.87843 49.4361 5.83702 48.2718 5.10286C47.1042 4.36546 45.7685 4 44.2614 4C42.5408 4 41.0757 4.511 39.8758 5.53301C38.6727 6.5162 38.0744 7.87456 38.0744 9.59515C38.0744 11.3157 38.6662 12.59 39.8499 13.4665C40.8008 14.1327 42.0977 14.7149 43.7504 15.2162C45.2737 15.6463 46.3345 16.0506 46.9263 16.4258C47.5182 16.788 47.8157 17.299 47.8157 17.9588C47.8157 18.57 47.5635 19.0552 47.0622 19.4109C46.5576 19.7731 45.8041 19.9478 44.8015 19.9478C42.6475 19.9478 41.2051 18.9905 40.4709 17.0694L37.2949 18.9258C37.8318 20.3779 38.7374 21.5196 40.0116 22.3443C41.2827 23.1723 42.8448 23.583 44.6947 23.583C46.6999 23.583 48.3429 23.072 49.6172 22.05C50.8882 21.028 51.5286 19.647 51.5286 17.907C51.5286 16.885 51.2925 15.9956 50.83 15.242H50.8268Z" fill="white"/>
<path d="M64.2784 11.4485C62.8974 10.0675 61.2124 9.38184 59.2201 9.38184C57.2279 9.38184 55.5461 10.0707 54.1619 11.4485C52.8003 12.8133 52.1179 14.4886 52.1179 16.4809C52.1179 18.4731 52.8035 20.1776 54.1619 21.5392C55.5267 22.904 57.2149 23.5832 59.2201 23.5832C61.2253 23.5832 62.9136 22.904 64.2784 21.5392C65.6594 20.1582 66.3515 18.4731 66.3515 16.4809C66.3515 14.4886 65.6594 12.8327 64.2784 11.4485ZM61.8301 19.1426C61.1315 19.8412 60.2616 20.1905 59.2201 20.1905C58.1787 20.1905 57.3087 19.8412 56.6101 19.1426C55.931 18.4279 55.5881 17.5385 55.5881 16.4777C55.5881 15.4168 55.931 14.5339 56.6101 13.8127C57.3087 13.1141 58.182 12.7648 59.2201 12.7648C60.2583 12.7648 61.1315 13.1141 61.8301 13.8127C62.5287 14.5113 62.878 15.4007 62.878 16.4777C62.878 17.5546 62.5287 18.4408 61.8301 19.1426Z" fill="white"/>
<path d="M67.4509 4.37524V23.2047H70.9212V4.37524H67.4509Z" fill="white"/>
<path d="M82.9785 9.757V11.345C81.9371 10.0351 80.4752 9.38184 78.5929 9.38184C76.7106 9.38184 75.2553 10.0707 73.9648 11.4485C72.6938 12.8327 72.0534 14.508 72.0534 16.4809C72.0534 18.4537 72.6905 20.1582 73.9648 21.5392C75.2553 22.904 76.798 23.5832 78.5929 23.5832C80.4752 23.5832 81.9371 22.9299 82.9785 21.62V23.208H86.4488V9.757H82.9785ZM81.9015 19.2235C81.2029 19.9221 80.3135 20.2714 79.2365 20.2714C78.1596 20.2714 77.2734 19.9221 76.5716 19.2235C75.873 18.5087 75.5237 17.5934 75.5237 16.4777C75.5237 15.3619 75.873 14.4595 76.5716 13.7609C77.2702 13.0462 78.1596 12.6839 79.2365 12.6839C80.3135 12.6839 81.1997 13.0462 81.9015 13.7609C82.6163 14.4595 82.9785 15.3683 82.9785 16.4777C82.9785 17.587 82.6163 18.5055 81.9015 19.2235Z" fill="white"/>
<path d="M99.3593 10.8566C98.4278 9.87343 97.2182 9.38184 95.7273 9.38184C93.8838 9.38184 92.5448 10.0093 91.7169 11.2641V9.757H88.2498V23.2048H91.7169V15.9408C91.7169 14.8476 91.9821 14.0197 92.5125 13.4537C93.0397 12.8877 93.7609 12.6031 94.6762 12.6031C95.5041 12.6031 96.1509 12.8457 96.6296 13.3308C97.1018 13.8159 97.3411 14.4983 97.3411 15.3748V23.2048H100.811V14.9446C100.811 13.2241 100.326 11.8625 99.3593 10.8566Z" fill="white"/>
<path d="M112.649 9.757V11.345C111.608 10.0351 110.146 9.38184 108.264 9.38184C106.381 9.38184 104.926 10.0707 103.635 11.4485C102.364 12.8327 101.724 14.508 101.724 16.4809C101.724 18.4537 102.361 20.1582 103.635 21.5392C104.926 22.904 106.469 23.5832 108.264 23.5832C110.146 23.5832 111.608 22.9299 112.649 21.62V23.208H116.119V9.757H112.649ZM111.572 19.2235C110.874 19.9221 109.984 20.2714 108.907 20.2714C107.83 20.2714 106.944 19.9221 106.242 19.2235C105.544 18.5087 105.194 17.5934 105.194 16.4777C105.194 15.3619 105.544 14.4595 106.242 13.7609C106.941 13.0462 107.83 12.6839 108.907 12.6839C109.984 12.6839 110.87 13.0462 111.572 13.7609C112.287 14.4595 112.649 15.3683 112.649 16.4777C112.649 17.587 112.287 18.5055 111.572 19.2235Z" fill="white"/>
<path d="M116.05 4.37524V6.74267H121.593V23.2047H124.068V6.74267H129.634V4.37524H116.05Z" fill="white"/>
<path d="M131.035 12.0113V9.75386H128.694V23.2016H131.035V16.0702C131.035 14.6019 131.449 13.5346 132.274 12.8684C133.102 12.2086 134.088 11.9014 135.233 11.9531V9.50806C133.209 9.50806 131.808 10.3425 131.035 12.0049V12.0113Z" fill="white"/>
<path d="M146.97 9.75701V12.0662C145.822 10.2939 144.127 9.40771 141.886 9.40771C140.003 9.40771 138.399 10.0966 137.07 11.4744C135.744 12.8586 135.078 14.5274 135.078 16.4777C135.078 18.4279 135.744 20.1291 137.07 21.5101C138.38 22.8749 139.987 23.5541 141.886 23.5541C144.127 23.5541 145.822 22.6647 146.97 20.8891V23.2015H149.311V9.75701H146.97ZM145.598 19.9221C144.683 20.8373 143.545 21.2934 142.18 21.2934C140.815 21.2934 139.706 20.8373 138.79 19.9221C137.875 18.9712 137.419 17.8231 137.419 16.4777C137.419 15.1322 137.875 13.9744 138.79 13.0591C139.706 12.1277 140.834 11.6587 142.18 11.6587C143.525 11.6587 144.683 12.1277 145.598 13.0591C146.514 13.9744 146.97 15.1161 146.97 16.4777C146.97 17.8392 146.514 18.9712 145.598 19.9221Z" fill="white"/>
<path d="M162.656 4.37524V12.0661C161.508 10.2938 159.813 9.40764 157.572 9.40764C155.69 9.40764 154.082 10.0965 152.756 11.4743C151.427 12.8585 150.764 14.5274 150.764 16.4776C150.764 18.4278 151.424 20.129 152.756 21.51C154.063 22.8748 155.67 23.554 157.572 23.554C159.813 23.554 161.508 22.6646 162.656 20.889V23.2015H164.998V4.37524H162.656ZM161.285 19.922C160.369 20.8373 159.228 21.2933 157.866 21.2933C156.505 21.2933 155.392 20.8373 154.477 19.922C153.561 18.9711 153.105 17.823 153.105 16.4776C153.105 15.1322 153.561 13.9743 154.477 13.059C155.392 12.1276 156.521 11.6586 157.866 11.6586C159.212 11.6586 160.369 12.1276 161.285 13.059C162.2 13.9743 162.656 15.116 162.656 16.4776C162.656 17.8392 162.2 18.9711 161.285 19.922Z" fill="white"/>
<path d="M180.194 16.5068C180.194 14.5339 179.566 12.8683 178.312 11.5035C177.073 10.1095 175.472 9.40771 173.496 9.40771C171.416 9.40771 169.722 10.0772 168.415 11.4226C167.105 12.7519 166.452 14.4369 166.452 16.4809C166.452 18.5249 167.112 20.2067 168.438 21.565C169.802 22.8943 171.542 23.5573 173.658 23.5573C176.281 23.5573 178.25 22.545 179.576 20.5172L177.584 19.3884C176.775 20.6983 175.485 21.3516 173.709 21.3516C172.419 21.3516 171.342 21.0185 170.482 20.3457C169.621 19.673 169.075 18.7416 168.845 17.5579H180.116C180.171 17.1989 180.197 16.8496 180.197 16.51L180.194 16.5068ZM168.845 15.5106C169.042 14.3107 169.557 13.3567 170.391 12.6581C171.226 11.9595 172.26 11.6102 173.496 11.6102C174.612 11.6102 175.559 11.953 176.348 12.6322C177.141 13.3179 177.632 14.2719 177.83 15.5106H168.848H168.845Z" fill="white"/>
<path d="M26.9697 9.10902L14.1685 18.8893C14.0871 18.9543 13.9826 18.9888 13.878 18.9888H1.40988C1.18523 18.9888 1.08839 18.7056 1.26657 18.5717L14.0639 8.7876C14.1452 8.72255 14.2498 8.68811 14.3544 8.68811H26.8264C27.051 8.68811 27.1479 8.97127 26.9697 9.10519V9.10902ZM9.90787 0.0557611C9.64061 -0.0475516 9.33462 -0.00546126 9.1061 0.166727L0.31761 6.88588C0.116199 7.03894 0 7.27617 0 7.52489V16.9608C0 17.2975 0.391202 17.485 0.658459 17.2822L11.9491 8.64985L18.127 3.92808C18.3788 3.73676 18.3207 3.34646 18.0263 3.23167L9.90787 0.0557611ZM27.3415 10.6319L16.0509 19.2605L9.76069 24.0664C9.50892 24.2577 9.56702 24.648 9.86139 24.7628L17.9798 27.9425C18.2471 28.0497 18.5531 28.0038 18.7816 27.8316L27.6824 21.0282C27.8838 20.8752 28 20.638 28 20.3892V10.9495C28 10.6128 27.6088 10.4253 27.3415 10.6281V10.6319Z" fill="url(#paint0_linear_209_150)"/>
<defs>
<linearGradient id="paint0_linear_209_150" x1="0" y1="13.9992" x2="28" y2="13.9992" gradientUnits="userSpaceOnUse">
<stop stop-color="#17FCCD"/>
<stop offset="1" stop-color="#700FFD"/>
</linearGradient>
</defs>
</svg>
