<svg width="28" height="28" viewBox="0 0 28 28" fill="none" xmlns="http://www.w3.org/2000/svg">
<path d="M26.9697 9.10902L14.1685 18.8893C14.0871 18.9543 13.9826 18.9888 13.878 18.9888H1.40988C1.18523 18.9888 1.08839 18.7056 1.26657 18.5717L14.0639 8.7876C14.1452 8.72255 14.2498 8.68811 14.3544 8.68811H26.8264C27.051 8.68811 27.1479 8.97127 26.9697 9.10519V9.10902ZM9.90787 0.0557611C9.64061 -0.0475516 9.33462 -0.00546126 9.1061 0.166727L0.31761 6.88588C0.116199 7.03894 0 7.27617 0 7.52489V16.9608C0 17.2975 0.391202 17.485 0.658459 17.2822L11.9491 8.64985L18.127 3.92808C18.3788 3.73676 18.3207 3.34646 18.0263 3.23167L9.90787 0.0557611ZM27.3415 10.6319L16.0509 19.2605L9.76069 24.0664C9.50892 24.2577 9.56702 24.648 9.86139 24.7628L17.9798 27.9425C18.2471 28.0497 18.5531 28.0038 18.7816 27.8316L27.6824 21.0282C27.8838 20.8752 28 20.638 28 20.3892V10.9495C28 10.6128 27.6088 10.4253 27.3415 10.6281V10.6319Z" fill="url(#paint0_linear_209_163)"/>
<defs>
<linearGradient id="paint0_linear_209_163" x1="0" y1="13.9992" x2="28" y2="13.9992" gradientUnits="userSpaceOnUse">
<stop stop-color="#17FCCD"/>
<stop offset="1" stop-color="#700FFD"/>
</linearGradient>
</defs>
</svg>
