<svg width="40" height="40" viewBox="0 0 40 40" fill="none" xmlns="http://www.w3.org/2000/svg">
<path d="M4.03491 14.5324C5.1862 10.1176 8.70377 6.74003 13.1209 5.80805L13.9649 5.62997C17.9459 4.79001 22.0554 4.79001 26.0364 5.62997L26.8804 5.80805C31.2975 6.74003 34.8151 10.1176 35.9664 14.5324C36.901 18.1161 36.901 21.8839 35.9664 25.4676C34.8151 29.8824 31.2975 33.26 26.8804 34.1919L26.0364 34.37C22.0554 35.21 17.9459 35.21 13.965 34.37L13.1209 34.1919C8.70377 33.26 5.1862 29.8824 4.03491 25.4676C3.10034 21.8839 3.10034 18.1161 4.03491 14.5324Z" fill="white" fill-opacity="0.15" stroke="#FAFAFF" stroke-width="2.5"/>
<path d="M10 20H13.3333L16.6667 25L23.3333 15L26.6667 20H30" stroke="#FAFAFF" stroke-width="2.5" stroke-linecap="round" stroke-linejoin="round"/>
</svg>
