<svg width="40" height="40" viewBox="0 0 40 40" fill="none" xmlns="http://www.w3.org/2000/svg">
<path d="M13.334 15L20.0007 15" stroke="#FAFAFF" stroke-width="2.5" stroke-linecap="round"/>
<path d="M4.80834 14.7479C5.92943 10.2331 9.50937 6.74223 14.0503 5.73603L14.8067 5.56841C18.227 4.81053 21.7717 4.81053 25.192 5.56841L25.9484 5.73603C30.4893 6.74223 34.0693 10.2331 35.1904 14.7479C36.0468 18.1969 36.0468 21.8031 35.1904 25.2521C34.0693 29.7669 30.4893 33.2578 25.9484 34.264L25.192 34.4316C21.7717 35.1895 18.227 35.1895 14.8067 34.4316L14.0503 34.264C9.50937 33.2578 5.92943 29.7669 4.80834 25.2521C3.95191 21.8031 3.95191 18.1969 4.80834 14.7479Z" fill="white" fill-opacity="0.15"/>
<path d="M4.80834 25.2521L6.0215 24.9508L4.80834 25.2521ZM4.80834 14.7479L6.0215 15.0492L4.80834 14.7479ZM35.1904 14.7479L36.4035 14.4467L35.1904 14.7479ZM35.1904 25.2521L33.9772 24.9508L35.1904 25.2521ZM25.192 34.4316L24.9215 33.2112H24.9215L25.192 34.4316ZM14.8067 34.4316L15.0772 33.2112L14.8067 34.4316ZM14.8067 5.56841L15.0772 6.78881L14.8067 5.56841ZM25.192 5.56841L25.4624 4.34802V4.34802L25.192 5.56841ZM14.0503 34.264L13.7799 35.4844L14.0503 34.264ZM25.9484 34.264L26.2188 35.4844L25.9484 34.264ZM25.9484 5.73603L25.678 6.95643L25.9484 5.73603ZM14.0503 5.73603L13.7799 4.51563V4.51563L14.0503 5.73603ZM31.1549 24.1728L30.9307 25.4025H30.9307L31.1549 24.1728ZM31.0572 24.1549L31.2815 22.9252H31.2815L31.0572 24.1549ZM31.0572 15.8451L31.2815 17.0748L31.2815 17.0748L31.0572 15.8451ZM31.1549 15.8272L30.9307 14.5975L30.9307 14.5975L31.1549 15.8272ZM34.9994 17.4788C35.6319 17.7555 36.3689 17.467 36.6456 16.8346C36.9223 16.2021 36.6338 15.465 36.0013 15.1884L34.9994 17.4788ZM36.0013 24.8116C36.6338 24.535 36.9223 23.7979 36.6456 23.1654C36.3689 22.533 35.6319 22.2445 34.9994 22.5212L36.0013 24.8116ZM27.6296 21.047L26.4277 21.3904L27.6296 21.047ZM27.6296 18.953L28.8315 19.2963L27.6296 18.953ZM14.3207 6.95643L15.0772 6.78881L14.5363 4.34802L13.7799 4.51563L14.3207 6.95643ZM24.9216 6.78881L25.678 6.95643L26.2188 4.51563L25.4624 4.34802L24.9216 6.78881ZM25.678 33.0436L24.9215 33.2112L25.4624 35.652L26.2188 35.4844L25.678 33.0436ZM15.0772 33.2112L14.3207 33.0436L13.7799 35.4844L14.5363 35.652L15.0772 33.2112ZM6.0215 24.9508C5.21419 21.6997 5.21419 18.3003 6.0215 15.0492L3.59518 14.4467C2.68963 18.0935 2.68963 21.9065 3.59518 25.5533L6.0215 24.9508ZM33.9772 15.0492C34.7845 18.3003 34.7845 21.6997 33.9772 24.9508L36.4035 25.5533C37.3091 21.9065 37.3091 18.0935 36.4035 14.4467L33.9772 15.0492ZM24.9215 33.2112C21.6794 33.9296 18.3193 33.9296 15.0772 33.2112L14.5363 35.652C18.1347 36.4493 21.864 36.4493 25.4624 35.652L24.9215 33.2112ZM15.0772 6.78881C18.3193 6.0704 21.6794 6.0704 24.9216 6.78881L25.4624 4.34802C21.864 3.55066 18.1347 3.55066 14.5363 4.34802L15.0772 6.78881ZM14.3207 33.0436C10.2431 32.14 7.02828 29.0054 6.0215 24.9508L3.59518 25.5533C4.83058 30.5285 8.77561 34.3755 13.7799 35.4844L14.3207 33.0436ZM26.2188 35.4844C31.2231 34.3755 35.1681 30.5285 36.4035 25.5533L33.9772 24.9508C32.9704 29.0053 29.7556 32.14 25.678 33.0436L26.2188 35.4844ZM25.678 6.95643C29.7556 7.85996 32.9704 10.9947 33.9772 15.0492L36.4035 14.4467C35.1681 9.47147 31.2231 5.6245 26.2188 4.51563L25.678 6.95643ZM13.7799 4.51563C8.77562 5.6245 4.83058 9.47146 3.59518 14.4467L6.0215 15.0492C7.02828 10.9947 10.2431 7.85996 14.3207 6.95643L13.7799 4.51563ZM31.3792 22.943L31.2815 22.9252L30.833 25.3847L30.9307 25.4025L31.3792 22.943ZM31.2815 17.0748L31.3792 17.057L30.9307 14.5975L30.833 14.6153L31.2815 17.0748ZM31.3791 17.057C32.601 16.8342 33.8615 16.9811 34.9994 17.4788L36.0013 15.1884C34.4075 14.4912 32.642 14.2855 30.9307 14.5975L31.3791 17.057ZM30.9307 25.4025C32.642 25.7145 34.4075 25.5088 36.0013 24.8116L34.9994 22.5212C33.8615 23.0189 32.601 23.1658 31.3791 22.943L30.9307 25.4025ZM28.8315 20.7037C28.7002 20.2438 28.7002 19.7562 28.8315 19.2963L26.4277 18.6096C26.1681 19.5184 26.1681 20.4816 26.4277 21.3904L28.8315 20.7037ZM30.833 14.6153C28.7241 14.9998 27.0165 16.5483 26.4277 18.6096L28.8315 19.2963C29.1591 18.1497 30.1089 17.2886 31.2815 17.0748L30.833 14.6153ZM31.2815 22.9252C30.1089 22.7114 29.1591 21.8503 28.8315 20.7037L26.4277 21.3904C27.0165 23.4517 28.7241 25.0001 30.833 25.3847L31.2815 22.9252Z" fill="#FAFAFF"/>
</svg>
