<svg width="128" height="128" viewBox="0 0 128 128" fill="none" xmlns="http://www.w3.org/2000/svg">
<g filter="url(#filter0_f_209_633)">
<rect x="14" y="14" width="100" height="100" rx="6" fill="url(#paint0_linear_209_633)" fill-opacity="0.6"/>
</g>
<g filter="url(#filter1_b_209_633)">
<rect x="14" y="14" width="100" height="100" rx="6" fill="#6D8CF8" fill-opacity="0.1"/>
<rect x="14.5" y="14.5" width="99" height="99" rx="5.5" stroke="url(#paint1_linear_209_633)"/>
</g>
<path d="M57.334 59L64.0007 59" stroke="#FAFAFF" stroke-width="2.5" stroke-linecap="round"/>
<path d="M48.8083 58.7479C49.9294 54.2331 53.5094 50.7422 58.0503 49.736L58.8067 49.5684C62.227 48.8105 65.7717 48.8105 69.192 49.5684L69.9484 49.736C74.4893 50.7422 78.0693 54.2331 79.1904 58.7479C80.0468 62.1969 80.0468 65.8031 79.1904 69.2521C78.0693 73.7669 74.4893 77.2578 69.9484 78.264L69.192 78.4316C65.7717 79.1895 62.227 79.1895 58.8067 78.4316L58.0503 78.264C53.5094 77.2578 49.9294 73.7669 48.8083 69.2521C47.9519 65.8031 47.9519 62.1969 48.8083 58.7479Z" fill="white" fill-opacity="0.15"/>
<path d="M48.8083 69.2521L50.0215 68.9508L48.8083 69.2521ZM48.8083 58.7479L50.0215 59.0492L48.8083 58.7479ZM79.1904 58.7479L80.4035 58.4467L79.1904 58.7479ZM79.1904 69.2521L77.9772 68.9508L79.1904 69.2521ZM69.192 78.4316L68.9215 77.2112H68.9215L69.192 78.4316ZM58.8067 78.4316L59.0772 77.2112L58.8067 78.4316ZM58.8067 49.5684L59.0772 50.7888L58.8067 49.5684ZM69.192 49.5684L69.4624 48.348V48.348L69.192 49.5684ZM58.0503 78.264L57.7799 79.4844L58.0503 78.264ZM69.9484 78.264L70.2188 79.4844L69.9484 78.264ZM69.9484 49.736L69.678 50.9564L69.9484 49.736ZM58.0503 49.736L57.7799 48.5156V48.5156L58.0503 49.736ZM75.1549 68.1728L74.9307 69.4025H74.9307L75.1549 68.1728ZM75.0572 68.1549L75.2815 66.9252H75.2815L75.0572 68.1549ZM75.0572 59.8451L75.2815 61.0748L75.2815 61.0748L75.0572 59.8451ZM75.1549 59.8272L74.9307 58.5975L74.9307 58.5975L75.1549 59.8272ZM78.9994 61.4788C79.6319 61.7555 80.3689 61.467 80.6456 60.8346C80.9223 60.2021 80.6338 59.465 80.0013 59.1884L78.9994 61.4788ZM80.0013 68.8116C80.6338 68.535 80.9223 67.7979 80.6456 67.1654C80.3689 66.533 79.6319 66.2445 78.9994 66.5212L80.0013 68.8116ZM71.6296 65.047L70.4277 65.3904L71.6296 65.047ZM71.6296 62.953L72.8315 63.2963L71.6296 62.953ZM58.3207 50.9564L59.0772 50.7888L58.5363 48.348L57.7799 48.5156L58.3207 50.9564ZM68.9216 50.7888L69.678 50.9564L70.2188 48.5156L69.4624 48.348L68.9216 50.7888ZM69.678 77.0436L68.9215 77.2112L69.4624 79.652L70.2188 79.4844L69.678 77.0436ZM59.0772 77.2112L58.3207 77.0436L57.7799 79.4844L58.5363 79.652L59.0772 77.2112ZM50.0215 68.9508C49.2142 65.6997 49.2142 62.3003 50.0215 59.0492L47.5952 58.4467C46.6896 62.0935 46.6896 65.9065 47.5952 69.5533L50.0215 68.9508ZM77.9772 59.0492C78.7845 62.3003 78.7845 65.6997 77.9772 68.9508L80.4035 69.5533C81.3091 65.9065 81.3091 62.0935 80.4035 58.4467L77.9772 59.0492ZM68.9215 77.2112C65.6794 77.9296 62.3193 77.9296 59.0772 77.2112L58.5363 79.652C62.1347 80.4493 65.864 80.4493 69.4624 79.652L68.9215 77.2112ZM59.0772 50.7888C62.3193 50.0704 65.6794 50.0704 68.9216 50.7888L69.4624 48.348C65.864 47.5507 62.1347 47.5507 58.5363 48.348L59.0772 50.7888ZM58.3207 77.0436C54.2431 76.14 51.0283 73.0054 50.0215 68.9508L47.5952 69.5533C48.8306 74.5285 52.7756 78.3755 57.7799 79.4844L58.3207 77.0436ZM70.2188 79.4844C75.2231 78.3755 79.1681 74.5285 80.4035 69.5533L77.9772 68.9508C76.9704 73.0053 73.7556 76.14 69.678 77.0436L70.2188 79.4844ZM69.678 50.9564C73.7556 51.86 76.9704 54.9947 77.9772 59.0492L80.4035 58.4467C79.1681 53.4715 75.2231 49.6245 70.2188 48.5156L69.678 50.9564ZM57.7799 48.5156C52.7756 49.6245 48.8306 53.4715 47.5952 58.4467L50.0215 59.0492C51.0283 54.9947 54.2431 51.86 58.3207 50.9564L57.7799 48.5156ZM75.3792 66.943L75.2815 66.9252L74.833 69.3847L74.9307 69.4025L75.3792 66.943ZM75.2815 61.0748L75.3792 61.057L74.9307 58.5975L74.833 58.6153L75.2815 61.0748ZM75.3791 61.057C76.601 60.8342 77.8615 60.9811 78.9994 61.4788L80.0013 59.1884C78.4075 58.4912 76.642 58.2855 74.9307 58.5975L75.3791 61.057ZM74.9307 69.4025C76.642 69.7145 78.4075 69.5088 80.0013 68.8116L78.9994 66.5212C77.8615 67.0189 76.601 67.1658 75.3791 66.943L74.9307 69.4025ZM72.8315 64.7037C72.7002 64.2438 72.7002 63.7562 72.8315 63.2963L70.4277 62.6096C70.1681 63.5184 70.1681 64.4816 70.4277 65.3904L72.8315 64.7037ZM74.833 58.6153C72.7241 58.9998 71.0165 60.5483 70.4277 62.6096L72.8315 63.2963C73.1591 62.1497 74.1089 61.2886 75.2815 61.0748L74.833 58.6153ZM75.2815 66.9252C74.1089 66.7114 73.1591 65.8503 72.8315 64.7037L70.4277 65.3904C71.0165 67.4517 72.7241 69.0001 74.833 69.3847L75.2815 66.9252Z" fill="#FAFAFF"/>
<defs>
<filter id="filter0_f_209_633" x="0" y="0" width="128" height="128" filterUnits="userSpaceOnUse" color-interpolation-filters="sRGB">
<feFlood flood-opacity="0" result="BackgroundImageFix"/>
<feBlend mode="normal" in="SourceGraphic" in2="BackgroundImageFix" result="shape"/>
<feGaussianBlur stdDeviation="7" result="effect1_foregroundBlur_209_633"/>
</filter>
<filter id="filter1_b_209_633" x="-86" y="-86" width="300" height="300" filterUnits="userSpaceOnUse" color-interpolation-filters="sRGB">
<feFlood flood-opacity="0" result="BackgroundImageFix"/>
<feGaussianBlur in="BackgroundImageFix" stdDeviation="50"/>
<feComposite in2="SourceAlpha" operator="in" result="effect1_backgroundBlur_209_633"/>
<feBlend mode="normal" in="SourceGraphic" in2="effect1_backgroundBlur_209_633" result="shape"/>
</filter>
<linearGradient id="paint0_linear_209_633" x1="14" y1="14" x2="114" y2="114" gradientUnits="userSpaceOnUse">
<stop offset="0.140223" stop-color="#1BFFDD"/>
<stop offset="0.541694" stop-opacity="0"/>
<stop offset="0.860308" stop-color="#7726FF"/>
</linearGradient>
<linearGradient id="paint1_linear_209_633" x1="14" y1="14" x2="114" y2="114" gradientUnits="userSpaceOnUse">
<stop offset="0.140223" stop-color="#18F9D8"/>
<stop offset="0.472393" stop-color="#3B9CE6" stop-opacity="0"/>
<stop offset="0.636979" stop-color="#4C6EED" stop-opacity="0"/>
<stop offset="0.901208" stop-color="#8237FF"/>
</linearGradient>
</defs>
</svg>
